<mxfile host="app.diagrams.net" modified="2023-09-27T09:00:13.222Z" agent="Mozilla/5.0 (Macintosh; Intel Mac OS X 10_15_7) AppleWebKit/537.36 (KHTML, like Gecko) Chrome/115.0.0.0 Safari/537.36" version="21.7.1" etag="BDzq_KrUT0I_OD4ldQH_" type="github">
  <diagram name="Page-1" id="7l3PKkyN__A2wjEG0Fvm">
    <mxGraphModel>
      <root>
        <mxCell id="0" />
        <mxCell id="1" parent="0" />
      </root>
    </mxGraphModel>
  </diagram>
</mxfile>
